# xmcd CD database file
#
# Track frame offsets:
#	150
#	20730
#	39178
#	58415
#	74365
#	91258
#	107763
#	154128
#
# Disc length: 2285 seconds
#
# Revision: 0
# Processed by: cddbd v1.4PL0 Copyright (c) Steve Scherf et al.
# Submitted via: CDex 1.51
#
DISCID=6708eb08
DTITLE=Raulin Rosendo - La Maxima
DYEAR=1900
DGENRE=Salsa
TTITLE0=Amor En Secreto
TTITLE1=El Justo
TTITLE2=Santo Domingo
TTITLE3=El Encuentro
TTITLE4=Amada Mia
TTITLE5=Sin Camilla
TTITLE6=Medley
TTITLE7=La Morena
EXTD=
EXTT0=
EXTT1=
EXTT2=
EXTT3=
EXTT4=
EXTT5=
EXTT6=
EXTT7=
PLAYORDER=
